<mxfile host="app.diagrams.net" modified="2023-06-07T09:50:26.675Z" agent="Mozilla/5.0 (Windows NT 10.0; Win64; x64) AppleWebKit/537.36 (KHTML, like Gecko) Chrome/114.0.0.0 Safari/537.36" etag="51qpLWVsS_XpjLn9q74j" version="21.3.7" type="github">
  <diagram name="Page-1" id="HswYSg3miuZkvUwzH1aY">
    <mxGraphModel dx="1313" dy="654" grid="1" gridSize="10" guides="1" tooltips="1" connect="1" arrows="1" fold="1" page="1" pageScale="1" pageWidth="1654" pageHeight="1169" math="0" shadow="0">
      <root>
        <mxCell id="0" />
        <mxCell id="1" parent="0" />
        <mxCell id="4htOExNeePvi6nWO9amV-1" value="Mulai" style="ellipse;whiteSpace=wrap;html=1;" vertex="1" parent="1">
          <mxGeometry x="827" y="140" width="120" height="50" as="geometry" />
        </mxCell>
        <mxCell id="4htOExNeePvi6nWO9amV-2" value="Data Seleksi &lt;br&gt;IISMA 2022" style="shape=parallelogram;perimeter=parallelogramPerimeter;whiteSpace=wrap;html=1;fixedSize=1;" vertex="1" parent="1">
          <mxGeometry x="620" y="220" width="120" height="60" as="geometry" />
        </mxCell>
        <mxCell id="4htOExNeePvi6nWO9amV-3" value="Data Pengisian Survei" style="shape=parallelogram;perimeter=parallelogramPerimeter;whiteSpace=wrap;html=1;fixedSize=1;" vertex="1" parent="1">
          <mxGeometry x="1040" y="220" width="120" height="60" as="geometry" />
        </mxCell>
      </root>
    </mxGraphModel>
  </diagram>
</mxfile>
